<svg width="48" height="48" fill="none" xmlns="http://www.w3.org/2000/svg"><path fill-rule="evenodd" clip-rule="evenodd" d="M4 24C4 12.954 12.954 4 24 4s20 8.954 20 20-8.954 20-20 20S4 35.046 4 24zm22 2a2 2 0 01-4 0V16a2 2 0 014 0v10zm-2 8a2 2 0 11.001-4.001A2 2 0 0124 34z" fill="#0C93A4"/><mask id="a" maskUnits="userSpaceOnUse" x="4" y="4" width="40" height="40"><path fill-rule="evenodd" clip-rule="evenodd" d="M4 24C4 12.954 12.954 4 24 4s20 8.954 20 20-8.954 20-20 20S4 35.046 4 24zm22 2a2 2 0 01-4 0V16a2 2 0 014 0v10zm-2 8a2 2 0 11.001-4.001A2 2 0 0124 34z" fill="#fff"/></mask></svg>